<?xml version="1.0" encoding="UTF-8"?>
<svg version="1.1" xmlns="http://www.w3.org/2000/svg" width="192" height="192">
<path d="M0 0 C63.36 0 126.72 0 192 0 C192 63.36 192 126.72 192 192 C128.64 192 65.28 192 0 192 C0 128.64 0 65.28 0 0 Z " fill="#101143" transform="translate(0,0)"/>
<path d="M0 0 C22.44 0 44.88 0 68 0 C68 3.3 68 6.6 68 10 C49.19 10 30.38 10 11 10 C11 22.54 11 35.08 11 48 C24.86 48 38.72 48 53 48 C53 50.97 53 53.94 53 57 C39.14 57 25.28 57 11 57 C11 69.87 11 82.74 11 96 C29.81 96 48.62 96 68 96 C68 99.3 68 102.6 68 106 C45.56 106 23.12 106 0 106 C0 71.02 0 36.04 0 0 Z " fill="#00A103" transform="translate(62,43)"/>
<path d="M0 0 C0.33 0 0.66 0 1 0 C1 3.96 1 7.92 1 12 C-2.96 12 -6.92 12 -11 12 C-10.01 11.01 -9.02 10.02 -8 9 C-7.01 9 -6.02 9 -5 9 C-4.67 8.01 -4.34 7.02 -4 6 C-3.34 6 -2.68 6 -2 6 C-1.855625 5.38125 -1.71125 4.7625 -1.5625 4.125 C-1 2 -1 2 0 0 Z " fill="#000000" transform="translate(191,180)"/>
<path d="M0 0 C0.99 0.99 1.98 1.98 3 3 C3 3.99 3 4.98 3 6 C3.99 6.33 4.98 6.66 6 7 C6 7.66 6 8.32 6 9 C6.61875 9.12375 7.2375 9.2475 7.875 9.375 C10 10 10 10 12 12 C8.04 12 4.08 12 0 12 C0 8.04 0 4.08 0 0 Z " fill="#000000" transform="translate(0,180)"/>
<path d="M0 0 C3.96 0 7.92 0 12 0 C12 3.96 12 7.92 12 12 C11.01 11.01 10.02 10.02 9 9 C9 8.01 9 7.02 9 6 C8.01 5.67 7.02 5.34 6 5 C6 4.34 6 3.68 6 3 C5.38125 2.87625 4.7625 2.7525 4.125 2.625 C2 2 2 2 0 0 Z " fill="#000000" transform="translate(180,0)"/>
<path d="M0 0 C3.96 0 7.92 0 12 0 C10.515 1.485 10.515 1.485 9 3 C8.01 3 7.02 3 6 3 C5.67 3.99 5.34 4.98 5 6 C4.34 6 3.68 6 3 6 C2.87625 6.61875 2.7525 7.2375 2.625 7.875 C2 10 2 10 0 12 C0 8.04 0 4.08 0 0 Z " fill="#000000" transform="translate(0,0)"/>
</svg>
